<?xml version="1.0" encoding="UTF-8"?>
<svg width="66px" height="66px" viewBox="0 0 66 66" version="1.1" xmlns="http://www.w3.org/2000/svg" xmlns:xlink="http://www.w3.org/1999/xlink">
    <title>icon/gv/default</title>
    <defs>
        <linearGradient x1="0%" y1="50%" x2="100.001905%" y2="50%" id="linearGradient-1">
            <stop stop-color="#16B3B5" offset="0%"></stop>
            <stop stop-color="#113340" offset="100%"></stop>
        </linearGradient>
        <linearGradient x1="0%" y1="50.0024206%" x2="99.9853664%" y2="50.0024206%" id="linearGradient-2">
            <stop stop-color="#6DD7C6" offset="0%"></stop>
            <stop stop-color="#5BB585" offset="100%"></stop>
        </linearGradient>
        <linearGradient x1="1.04606821%" y1="38.6675985%" x2="98.2221979%" y2="60.0537607%" id="linearGradient-3">
            <stop stop-color="#4CBCC8" offset="0%"></stop>
            <stop stop-color="#1E789A" offset="100%"></stop>
        </linearGradient>
    </defs>
    <g id="icon/gv/default" stroke="none" stroke-width="1" fill="none" fill-rule="evenodd" opacity="0.9">
        <g id="GV_Logo_WhiteText_Master" transform="translate(1.000000, 1.000000)" fill-rule="nonzero">
            <g id="circle">
                <circle id="Oval" fill="url(#linearGradient-1)" cx="32" cy="32" r="32"></circle>
                <path d="M28.499981,35.5451255 C26.3680271,33.6313647 23.3667309,33.022521 20.6575489,33.9542078 L20.6575489,33.9542078 L1.17642577,40.6238714 C4.44603604,52.3344889 14.2073222,61.3362795 26.3373081,63.5013905 L30.9235399,43.1705589 L30.9235399,43.1705589 C31.5592147,40.3772864 30.6316639,37.4588605 28.499981,35.5451255 L28.499981,35.5451255 Z" id="Path" fill="url(#linearGradient-2)"></path>
                <path d="M32,0.0036310596 C26.6474122,-0.00320894435 21.3793435,1.33844007 16.6820831,3.90475828 L33.0411063,33.1849594 L33.0411063,33.1849594 C36.030016,38.548693 41.4492674,42.1154503 47.5577867,42.7393187 C53.666306,43.3631871 59.6947023,40.9655881 63.7061983,36.3168121 C63.9002391,34.8864682 63.9975625,33.4446648 63.9975625,32.0012191 C64.0012191,14.3280125 49.6744257,0.0036310596 32,0.0036310596 Z" id="Path" fill="url(#linearGradient-3)"></path>
                <path d="M19.8858623,17.2806583 C11.0401158,17.2806583 4.76909597,23.3883196 4.76909597,32.0109718 C4.76909597,40.877443 11.3619566,46.7205608 19.8224694,46.7205608 C27.127281,46.7205608 33.6189845,41.3845861 33.6189845,32.2950208 C33.6202939,31.5827122 33.5730459,30.8711418 33.477542,30.1652634 L19.8444131,30.1652634 L19.8444131,35.3988342 L26.7627719,35.3988342 C25.9715799,38.7464665 23.6187283,40.5324393 19.5810888,40.5324393 C15.3605852,40.5324393 11.7496286,37.468856 11.7496286,32.0109718 C11.7496286,27.0602309 15.0155815,23.6516439 19.5603642,23.6516439 C22.1984838,23.6516439 24.2063317,24.6269191 25.6265763,26.1471294 L30.4554078,21.3999771 C27.9806469,18.8228123 24.3891958,17.2806583 19.8846432,17.2806583" id="Path" fill="#FFFFFF"></path>
                <path d="M56.7914968,17.5269153 L49.7999924,17.5269153 L38.934207,39.7961065 L34.6320241,31.6574346 C34.6393386,31.870776 34.644215,32.0828984 34.644215,32.2950208 C34.644215,34.7685626 34.1882738,37.0007238 33.3641663,38.9537125 C33.1142236,39.5405164 32.8267347,40.1106077 32.5034858,40.6604442 L35.6999505,46.4231018 L35.6999505,46.4231018 L42.6902358,46.4231018 L56.7914968,17.5269153 Z" id="Path" fill="#FFFFFF"></path>
            </g>
        </g>
    </g>
</svg>